<svg xmlns="http://www.w3.org/2000/svg" viewBox="0 0 170.08 170.08"><defs><style>.cls-1{fill:#06f;}.cls-2{fill:#4d4e4e;}.cls-3{fill:#fff;}</style></defs><g id="Layer_4" data-name="Layer 4"><g id="Symbols"><g id="Regular-S"><path class="cls-1" d="M32.7,96A4.2,4.2,0,0,0,35,95.35a22.92,22.92,0,0,0,2.61-2.1L51.45,80.46l26.48.05A21.86,21.86,0,0,0,88,78.41a13.79,13.79,0,0,0,6.15-6.21,21.89,21.89,0,0,0,2.08-10V33.78a21.77,21.77,0,0,0-2.08-10A14,14,0,0,0,88,17.59a21.6,21.6,0,0,0-10.08-2.12H29.44a21.6,21.6,0,0,0-10.08,2.12,14,14,0,0,0-6.15,6.2,21.77,21.77,0,0,0-2.08,10V62.19a21.77,21.77,0,0,0,2.08,10,13.82,13.82,0,0,0,6.15,6.18,21.86,21.86,0,0,0,10.08,2.1h-.6V91.64a4.88,4.88,0,0,0,1,3.2A3.54,3.54,0,0,0,32.7,96Z"/><path d="M40.57,66.69a3.37,3.37,0,0,1-2.41-.86,2.93,2.93,0,0,1-.91-2.22,6.38,6.38,0,0,1,.49-2.34l10.84-29.4a5,5,0,0,1,5-3.56,5.08,5.08,0,0,1,5.13,3.56l10.84,29.4a6.38,6.38,0,0,1,.49,2.34,2.88,2.88,0,0,1-.93,2.22,3.46,3.46,0,0,1-2.44.86,3.36,3.36,0,0,1-2-.64,4.37,4.37,0,0,1-1.42-2.24L60.55,55.9H46.73l-2.64,7.91a4.37,4.37,0,0,1-1.42,2.24A3.42,3.42,0,0,1,40.57,66.69Zm7.91-16.16H58.84L53.9,35.83h-.48Z"/></g></g><g id="Symbols-2" data-name="Symbols"><g id="Regular-S-2" data-name="Regular-S"><path class="cls-2" d="M68.81,100.62a5.28,5.28,0,0,0,2.68,1.47,28.91,28.91,0,0,0,4.23.47l17.54,1,16.22,16.23a21.67,21.67,0,0,0,8.63,5.63,14,14,0,0,0,8.74,0,21.77,21.77,0,0,0,8.53-5.59l20.09-20.09a21.92,21.92,0,0,0,5.6-8.53,14,14,0,0,0,0-8.74,21.67,21.67,0,0,0-5.63-8.63L121.19,39.48a21.67,21.67,0,0,0-8.63-5.63,14,14,0,0,0-8.74,0,21.92,21.92,0,0,0-8.53,5.6L75.2,59.57a21.92,21.92,0,0,0-5.6,8.53,14,14,0,0,0,0,8.73,21.7,21.7,0,0,0,5.63,8.64l1,1-6.87,6.87a6.1,6.1,0,0,0-2,3.73A4.33,4.33,0,0,0,68.81,100.62Zm6.94-4.38,7.77-7.77a3.47,3.47,0,0,0,1.26-2.33,3.55,3.55,0,0,0-1.26-2.3l-3.35-3.35Q76,76.32,76.1,72.41t4.07-7.87l20.09-20.09q4-4,7.86-4.06t8.06,4.09l34.29,34.29q4.17,4.17,4.09,8.06t-4.06,7.85l-20.09,20.1c-2.65,2.65-5.28,4-7.88,4.07s-5.29-1.29-8.08-4.07L98,98.28a9.42,9.42,0,0,0-2.28-1.77,5.71,5.71,0,0,0-2.76-.44Z"/><path class="cls-3" d="M75.75,96.24l7.77-7.77a3.47,3.47,0,0,0,1.26-2.33,3.55,3.55,0,0,0-1.26-2.3l-3.35-3.35Q76,76.32,76.1,72.41t4.07-7.87l20.09-20.09q4-4,7.86-4.06t8.06,4.09l34.29,34.29q4.17,4.17,4.09,8.06t-4.06,7.85l-20.09,20.1c-2.65,2.65-5.28,4-7.88,4.07s-5.29-1.29-8.08-4.07L98,98.28a9.42,9.42,0,0,0-2.28-1.77,5.71,5.71,0,0,0-2.76-.44Z"/></g></g><path d="M88.78,85.79l12.11-12.11,6.86,6.87c2.4,2.39,2,5.1.46,6.63a3.83,3.83,0,0,1-4.85.7,4.11,4.11,0,0,1-.65,5.27c-1.76,1.76-4.47,2.1-6.85-.28Zm15.71-1.25a1.39,1.39,0,0,0,0-2,.38.38,0,0,0-.09-.09l-3-3-2,2,3,3a1.42,1.42,0,0,0,2,.15l.1-.1m-4.52,5a1.55,1.55,0,0,0,0-2.18l-.11-.1-3.14-3.14-2.18,2.18,3.14,3.14a1.51,1.51,0,0,0,2.28.11"/><path d="M112,102.05a4,4,0,0,1-3-1.12,5,5,0,0,1,7-7,4,4,0,0,1,1.13,2.93l4.09-.86a8,8,0,0,0-2.46-4.83c-3.72-3.73-9.07-4-12.81-.29s-3.43,9.09.29,12.81a8,8,0,0,0,4.81,2.45Z"/><path d="M81,68.15l7.21-7.21,3.17,3.18-7.1,7.09a3.62,3.62,0,0,0,5.11,5.11l7.09-7.1,3.16,3.16-7.19,7.19c-3,3-7,3.3-10.84-.56S78,71.12,81,68.15"/><path d="M115.41,100.24c3.69-3.69,9-3.48,12.76.23s3.9,9.06.21,12.74-9,3.5-12.74-.21-3.92-9.07-.23-12.76M125.2,110a4.68,4.68,0,1,0-6.8.21,4.62,4.62,0,0,0,6.8-.21"/><path d="M135.5,67.2l-10,2.68,2.68-10L116.69,48.39l-10.8,17.28a5.63,5.63,0,0,0,.77,6.74l16.26,16.27a5.65,5.65,0,0,0,6.74.77L147,78.66Zm-26.61,3a2.52,2.52,0,0,1-.33-2.84l8.7-13.93,7.38,7.38-2.67,10-9.84,2.62ZM114.71,76,121,74.32l-1.68,6.32ZM128,86.78a2.53,2.53,0,0,1-2.85-.33l-3.23-3.23,2.62-9.83,10-2.68,7.38,7.38Z"/><path d="M97.55,123.11l-1.7-.75a1.85,1.85,0,0,0-2.45.94h0l-4.54,10.2-5.09-2.27,3-6.8a1.85,1.85,0,0,0-.94-2.45h0l-3.4-1.52,3-6.79,3.4,1.51a1.85,1.85,0,0,0,2.45-1l1.52-3.39a1.87,1.87,0,0,0-1-2.46h0l-1.7-.76a1.86,1.86,0,0,0-2.45.95h0l-.76,1.7-3.4-1.51a1.85,1.85,0,0,0-2.45.94h0l-2.27,5.1-20.39-9.07,2.27-5.1a1.86,1.86,0,0,0-1-2.45h0l-3.4-1.52.76-1.7a1.86,1.86,0,0,0-.94-2.45h0l-1.7-.76a1.87,1.87,0,0,0-2.46,1h0l-1.51,3.4a1.85,1.85,0,0,0,.94,2.45l3.4,1.51-3,6.8-3.4-1.51a1.86,1.86,0,0,0-2.46.94h0l-3,6.8-5.1-2.27,4.54-10.19a1.87,1.87,0,0,0-1-2.46h0l-1.7-.76a1.87,1.87,0,0,0-2.45,1h0L31.27,112a1.87,1.87,0,0,0,.95,2.46l5.1,2.27-3.78,8.49a1.86,1.86,0,0,0,.94,2.46l5.1,2.27-3.78,8.49a1.86,1.86,0,0,0,.94,2.46l10.2,4.53a1.85,1.85,0,0,0,2.45-.94l.76-1.7a1.86,1.86,0,0,0-.94-2.46h0l-6.8-3,2.27-5.1,23.79,10.58-2.27,5.1-6.8-3a1.85,1.85,0,0,0-2.45.94h0l-.76,1.7a1.87,1.87,0,0,0,1,2.46l10.19,4.53a1.86,1.86,0,0,0,2.46-.94l3.78-8.5,5.09,2.27a1.87,1.87,0,0,0,2.46-.95l3.78-8.49L90,140.1a1.85,1.85,0,0,0,2.45-.94l6-13.59a1.87,1.87,0,0,0-1-2.46Zm-20,17.56L40.15,124l2.26-5.1,3.4,1.51L49.59,112l5.1,2.27,1.51-3.4,20.39,9.07-1.51,3.39,5.1,2.27-3.78,8.5,3.4,1.51ZM59,118.19l-3.4-1.51a1.86,1.86,0,0,0-2.45.94h0l-2.27,5.1a1.87,1.87,0,0,0,.94,2.46l3.4,1.51a1.87,1.87,0,0,0,2.46-.94l2.27-5.1a1.87,1.87,0,0,0-.95-2.46Zm13.6,6-3.4-1.51a1.86,1.86,0,0,0-2.46.94h0l-2.26,5.1a1.85,1.85,0,0,0,.94,2.45l3.4,1.52a1.86,1.86,0,0,0,2.45-1l2.27-5.1a1.85,1.85,0,0,0-.94-2.45Z"/></g></svg>