<svg xmlns="http://www.w3.org/2000/svg" data-name="Group 34" viewBox="0 0 136 96.677"><path d="M37.454 96.035V60.424h20.182c7.047 0 10.411 4.591 10.411 9.077 0 4.431-2.723 7.421-6.087 8.168 3.791.587 6.781 4.218 6.781 8.7 0 5.179-3.471 9.664-10.465 9.664zm21.25-24.933a2.921 2.921 0 0 0-3.15-2.937h-8.916v5.926h8.916a2.932 2.932 0 0 0 3.15-2.99m.694 13.988a3.206 3.206 0 0 0-3.524-3.2h-9.236v6.407h9.236c2.189 0 3.524-1.281 3.524-3.2" data-name="Path 1"></path><path d="M95.482 85.806a8.385 8.385 0 0 1-6.06 2.756c-5.819 0-9.931-4.485-9.931-10.3s4.111-10.3 9.931-10.3a8.366 8.366 0 0 1 5.965 2.657l4.754-7.298a16.685 16.685 0 0 0-10.719-3.487c-10.945 0-19.274 7.421-19.274 18.419 0 10.945 8.329 18.42 19.274 18.42a16.72 16.72 0 0 0 10.681-3.483z" data-name="Path 2"></path><path d="M0 81.594v-21.2h9.343v20.875c0 4.218 2.509 7.261 7.528 7.261 4.912 0 7.475-3.043 7.475-7.261v-20.87h9.29v21.143c0 8.863-5.392 15.109-16.764 15.109C5.392 96.651 0 90.35 0 81.594" data-name="Path 3"></path><path d="M97.846 78.122c0-10.843 8.187-18.428 19.1-18.428s19.05 7.585 19.05 18.428-8.134 18.428-19.05 18.428-19.1-7.585-19.1-18.428m28.79 0c0-5.822-3.8-10.309-9.685-10.309-5.94 0-9.739 4.487-9.739 10.309 0 5.769 3.8 10.309 9.739 10.309 5.886 0 9.685-4.54 9.685-10.309" data-name="Path 4"></path><path d="M78.814.001l-10.816 18.68L57.179.001h-33.69l9.533 41.292a11.72 11.72 0 0 0 11.038 8.78h47.832a11.731 11.731 0 0 0 11.044-8.772l9.578-41.3zM44.061 43.525a5.231 5.231 0 0 1-4.659-3.706L31.72 6.547h21.685l10.809 18.666-10.6 18.312zm17.115 0l6.822-11.78 6.822 11.78zm35.382-3.707a5.241 5.241 0 0 1-4.666 3.707h-9.507l-10.6-18.312 10.81-18.666h21.683z" data-name="Path 5"></path></svg>